<svg xmlns="http://www.w3.org/2000/svg" width="30.356" height="44.432" viewBox="0 0 30.356 44.432">
  <g id="_5813735_business_management_marketing_location_pin_icon" data-name="5813735_business_management_marketing_location_pin_icon" transform="translate(-81.2)">
    <path id="Path_55" data-name="Path 55" d="M200.825,118.557a1.032,1.032,0,0,0,1.354-.538,5.6,5.6,0,1,0-2.872,2.925,1.031,1.031,0,1,0-.842-1.883,3.484,3.484,0,0,1-1.449.312,3.558,3.558,0,1,1,3.558-3.558,3.5,3.5,0,0,1-.286,1.4A1.011,1.011,0,0,0,200.825,118.557Z" transform="translate(-100.637 -100.637)" fill="#008fd2"/>
    <path id="Path_56" data-name="Path 56" d="M96.369,0A15.185,15.185,0,0,0,81.2,15.169c0,.512.069,1.467.078,1.536a15.021,15.021,0,0,0,2.091,6.283l1.5,2.473c3.376,5.571,6.864,11.325,9.937,17.174l.651,1.241a1.03,1.03,0,0,0,.911.555,1.014,1.014,0,0,0,.911-.555l.651-1.241c1.64-3.133,3.541-6.491,5.971-10.587a1.031,1.031,0,1,0-1.77-1.059c-2.326,3.914-4.166,7.168-5.762,10.188-3.037-5.736-6.439-11.351-9.737-16.792l-1.5-2.473a12.853,12.853,0,0,1-1.805-5.4c-.017-.252-.069-.989-.069-1.354a13.113,13.113,0,0,1,26.226,0c0,.364-.052,1.1-.069,1.328a12.963,12.963,0,0,1-1.805,5.424l-1.527,2.534c-.616,1.015-1.232,2.031-1.84,3.046A1.03,1.03,0,1,0,106,28.56c.616-1.015,1.224-2.031,1.84-3.046l1.536-2.534a15.107,15.107,0,0,0,2.1-6.3c0-.043.078-1,.078-1.51A15.211,15.211,0,0,0,96.369,0Z" fill="#008fd2"/>
  </g>
</svg>
