<svg id="Group_24" data-name="Group 24" xmlns="http://www.w3.org/2000/svg" xmlns:xlink="http://www.w3.org/1999/xlink" width="71.266" height="68.866" viewBox="0 0 71.266 68.866">
  <defs>
    <clipPath id="clip-path">
      <rect id="Rectangle_41" data-name="Rectangle 41" width="71.266" height="68.866" fill="#008fd2"/>
    </clipPath>
  </defs>
  <g id="Group_23" data-name="Group 23" clip-path="url(#clip-path)">
    <path id="Path_47" data-name="Path 47" d="M47.5,65.292c0,.4,0,.772,0,1.14a1.182,1.182,0,0,1-1.243,1.233c-1.608.006-3.216,0-4.824.011a1.028,1.028,0,0,0-.562.2,4.614,4.614,0,0,1-2.713.971c-1.706.024-3.414.037-5.12,0a4.742,4.742,0,0,1-.551-9.42,6.2,6.2,0,0,1,.886-.066c1.484-.006,2.968,0,4.453-.005a4.88,4.88,0,0,1,3.132,1.055.76.76,0,0,0,.438.129c1.583.009,3.166,0,4.749.006A1.211,1.211,0,0,1,47.5,61.888c0,.331,0,.662,0,1.015.1.006.175.013.246.013,2.016,0,4.033.028,6.048-.011a10.646,10.646,0,0,0,10.25-9.6c.106-1.325.016-2.667.016-4.015a10.439,10.439,0,0,1-1.522.354,1.328,1.328,0,0,0-1.261.986A4.642,4.642,0,0,1,56,53.316a4.732,4.732,0,0,1-3.754-4.672q-.013-8.961,0-17.922c0-.729,0-1.457,0-2.239-.567,0-1.119-.013-1.669.011-.1,0-.22.138-.3.239q-1.465,1.938-2.918,3.885a1.206,1.206,0,0,1-2.115-.012c-.959-1.275-1.922-2.546-2.866-3.831a.663.663,0,0,0-.614-.3c-1.991.011-3.983.007-5.974.006a1.209,1.209,0,0,1-1.358-1.342q0-9.332,0-18.664a1.208,1.208,0,0,1,1.37-1.366h15.74C50.47,5.741,43.541,3.153,39.4,2.606A29.092,29.092,0,0,0,26.473,3.8,29.378,29.378,0,0,0,7.017,24.316c.819-.168,1.662-.334,2.5-.525.09-.021.177-.181.213-.293A4.742,4.742,0,0,1,19,24.983c.011,4.168,0,8.336,0,12.5,0,3.711.007,7.421,0,11.132a4.737,4.737,0,0,1-9.24,1.523.452.452,0,0,0-.439-.384A10.683,10.683,0,0,1,.1,40.595a11.542,11.542,0,0,1-.094-1.516c-.012-1.472,0-2.944,0-4.415a10.646,10.646,0,0,1,3.97-8.54.812.812,0,0,0,.243-.429,31.7,31.7,0,0,1,12-19.148A30.642,30.642,0,0,1,30.317.443a31.691,31.691,0,0,1,25.2,6.474,1,1,0,0,0,.569.184c3.4.011,6.8.008,10.2.008a1.221,1.221,0,0,1,1.391,1.384q0,8.794-.006,17.588a.846.846,0,0,0,.291.669,10.438,10.438,0,0,1,3.268,7.475q.057,2.5,0,5.009a10.522,10.522,0,0,1-4.5,8.637.528.528,0,0,0-.243.488c.009,1.36.02,2.721,0,4.081A13.029,13.029,0,0,1,55.706,65.072a16.126,16.126,0,0,1-2.507.21c-1.879.03-3.759.01-5.7.01M46.311,30.062c.835-1.112,1.65-2.169,2.43-3.25a1.581,1.581,0,0,1,1.408-.713c4.9.015,9.795.008,14.692.008h.446V9.51H36.841v16.6c1.885,0,3.74.016,5.594-.009a1.6,1.6,0,0,1,1.446.714c.778,1.083,1.595,2.138,2.43,3.25M16.626,36.813q0-1.576,0-3.152c0-2.905.006-5.81,0-8.716a2.374,2.374,0,1,0-4.745.091q0,11.089,0,22.179c0,.519-.014,1.039.006,1.557a2.372,2.372,0,0,0,4.741-.165q.008-5.9,0-11.794M9.472,47.378V26.21a8.3,8.3,0,0,0-7.089,8.005c-.021,1.694-.015,3.388,0,5.082a8.3,8.3,0,0,0,7.091,8.082m52.3-18.9V47.364c.071-.007.12-.011.168-.017a8.3,8.3,0,0,0,6.924-7.9c.035-1.78.046-3.563,0-5.343a8.021,8.021,0,0,0-2.306-5.435.547.547,0,0,0-.336-.18c-1.471-.012-2.942-.008-4.446-.008m-7.146.017v.428q0,4.321,0,8.642,0,5.526,0,11.052a2.374,2.374,0,1,0,4.746-.05q0-9.865,0-19.731V28.5Zm-19,37.978c.778,0,1.557.006,2.335,0a2.373,2.373,0,1,0,.015-4.746q-2.335-.013-4.669,0a2.373,2.373,0,1,0-.015,4.746c.778.007,1.556,0,2.335,0m9.48-3.542H42.678v2.336h2.428Z" transform="translate(0 0)" fill="#008fd2"/>
    <rect id="Rectangle_37" data-name="Rectangle 37" width="23.701" height="2.333" transform="translate(39.215 16.633)" fill="#008fd2"/>
    <rect id="Rectangle_38" data-name="Rectangle 38" width="23.696" height="2.332" transform="translate(39.216 21.383)" fill="#008fd2"/>
    <rect id="Rectangle_39" data-name="Rectangle 39" width="15.39" height="2.332" transform="translate(47.527 11.884)" fill="#008fd2"/>
    <rect id="Rectangle_40" data-name="Rectangle 40" width="2.227" height="2.339" transform="translate(42.768 11.881)" fill="#008fd2"/>
  </g>
</svg>
