<svg id="Group_22" data-name="Group 22" xmlns="http://www.w3.org/2000/svg" xmlns:xlink="http://www.w3.org/1999/xlink" width="73.004" height="79.487" viewBox="0 0 73.004 79.487">
  <defs>
    <clipPath id="clip-path">
      <rect id="Rectangle_36" data-name="Rectangle 36" width="73.004" height="79.487" fill="#008fd2"/>
    </clipPath>
  </defs>
  <g id="Group_21" data-name="Group 21" clip-path="url(#clip-path)">
    <path id="Path_28" data-name="Path 28" d="M59.088,317.763l7.805-2.405.009-.095-6.458-1.994.778-2.545c.133.027.252.04.365.075q5.16,1.583,10.318,3.172a1.375,1.375,0,0,1,1.1,1.5q0,18.081,0,36.161a1.386,1.386,0,0,1-1.159,1.535q-11.787,3.632-23.575,7.259-5.541,1.705-11.083,3.411a2.188,2.188,0,0,1-1.357,0Q18.5,358.49,1.17,353.165A1.406,1.406,0,0,1,0,351.6q0-18.038,0-36.077a1.4,1.4,0,0,1,1.17-1.568l10.2-3.133c.118-.036.239-.065.4-.11l.794,2.563-6.438,1.986-.015.095,7.8,2.407-.792,2.581L2.7,317.137v.455q0,16.391,0,32.782c0,.269.006.445.345.549q15.905,4.872,31.8,9.772l.285.087V334.264h2.712v26.524c.368-.107.689-.2,1.008-.295q15.5-4.768,30.994-9.532c.324-.1.464-.218.464-.6q-.019-16.37-.01-32.739v-.484l-10.413,3.2-.8-2.58" transform="translate(0 -284.455)" fill="#008fd2"/>
    <path id="Path_29" data-name="Path 29" d="M185.659,7.411,184.3,5.053l-2.343,1.341L180.6,4.059,187.622,0l1.353,2.336L186.639,3.7l1.371,2.372a21.647,21.647,0,0,1,19.241,0L208.628,3.7,206.292,2.34,207.639,0l7.024,4.055-1.349,2.339L210.971,5.05l-1.355,2.339c6.516,4.7,9.9,11.023,9.6,19.082a20.667,20.667,0,0,1-7.144,15.068A21.552,21.552,0,0,1,181.464,39.8,20.9,20.9,0,0,1,176.2,22.678a21.342,21.342,0,0,1,9.461-15.267m11.978,36.96a18.926,18.926,0,1,0-18.931-18.9,18.939,18.939,0,0,0,18.931,18.9" transform="translate(-161.129)" fill="#008fd2"/>
    <path id="Path_30" data-name="Path 30" d="M117.611,501.356c0,1.084,0,2.168,0,3.253a1.353,1.353,0,0,1-1.877,1.378q-9.351-2.872-18.7-5.755a1.349,1.349,0,0,1-1.053-1.439q0-3.274,0-6.548a1.343,1.343,0,0,1,1.835-1.349q9.352,2.868,18.7,5.752a1.363,1.363,0,0,1,1.094,1.5c0,1.07,0,2.14,0,3.21m-2.725-2.385L98.7,493.991v3.93l16.186,4.979Z" transform="translate(-87.868 -449.345)" fill="#008fd2"/>
    <path id="Path_31" data-name="Path 31" d="M511.988,501.426c0-1.07,0-2.14,0-3.21a1.355,1.355,0,0,1,1.072-1.468q9.329-2.875,18.659-5.743a1.356,1.356,0,0,1,1.9,1.39q.006,3.168,0,6.336a1.441,1.441,0,0,1-1.23,1.655l-16.523,5.08c-.645.2-1.289.4-1.935.593a1.372,1.372,0,0,1-1.942-1.423q0-1.605,0-3.21m18.908-7.342-16.186,4.98v3.93l16.186-4.982Z" transform="translate(-468.726 -449.433)" fill="#008fd2"/>
    <path id="Path_32" data-name="Path 32" d="M763.351,733.5l2.7-.831.8,2.58-2.7.833-.792-2.581" transform="translate(-698.852 -670.759)" fill="#008fd2"/>
    <path id="Path_33" data-name="Path 33" d="M702.812,754.942l-2.7.83-.8-2.579,2.7-.832.8,2.581" transform="translate(-640.226 -688.79)" fill="#008fd2"/>
    <path id="Path_34" data-name="Path 34" d="M350.841,822.1l-.8,2.583-2.7-.829.789-2.578,2.706.825" transform="translate(-317.997 -751.88)" fill="#008fd2"/>
    <path id="Path_35" data-name="Path 35" d="M286.842,802.392l-.794,2.582-2.7-.828.79-2.581,2.7.827" transform="translate(-259.408 -733.837)" fill="#008fd2"/>
    <path id="Path_36" data-name="Path 36" d="M638.833,774.616l-2.7.832-.8-2.581,2.7-.834.79,2.582" transform="translate(-581.658 -706.801)" fill="#008fd2"/>
    <path id="Path_37" data-name="Path 37" d="M220.143,781.816l2.7.831-.785,2.582-2.7-.828.791-2.586" transform="translate(-200.818 -715.756)" fill="#008fd2"/>
    <path id="Path_38" data-name="Path 38" d="M428.144,185.677H417.529a1.369,1.369,0,0,1-1.53-1.5c0-3.532,0-7.065,0-10.632h2.69v9.422h9.456Z" transform="translate(-380.848 -158.88)" fill="#008fd2"/>
    <path id="Path_39" data-name="Path 39" d="M564.924,191.33l1.354,2.337-2.34,1.353-1.353-2.34,2.339-1.35" transform="translate(-515.049 -175.164)" fill="#008fd2"/>
    <path id="Path_40" data-name="Path 40" d="M562.58,369.639l1.352-2.34,2.34,1.35-1.348,2.337-2.344-1.347" transform="translate(-515.045 -336.264)" fill="#008fd2"/>
    <path id="Path_41" data-name="Path 41" d="M323.552,130.569l-1.349-2.339,2.335-1.354,1.352,2.341-2.339,1.353" transform="translate(-294.978 -116.155)" fill="#008fd2"/>
    <path id="Path_42" data-name="Path 42" d="M501.868,128.214l-1.35,2.339-2.34-1.35,1.351-2.34,2.339,1.352" transform="translate(-456.084 -116.143)" fill="#008fd2"/>
    <path id="Path_43" data-name="Path 43" d="M257.728,193.641l1.353-2.338,2.34,1.348-1.349,2.34-2.343-1.351" transform="translate(-235.951 -175.139)" fill="#008fd2"/>
    <path id="Path_44" data-name="Path 44" d="M261.444,369.659,259.1,371.01l-1.352-2.338,2.339-1.352,1.353,2.339" transform="translate(-235.973 -336.283)" fill="#008fd2"/>
    <path id="Path_45" data-name="Path 45" d="M325.882,433.055l-1.35,2.34-2.339-1.35,1.348-2.341,2.34,1.351" transform="translate(-294.97 -395.227)" fill="#008fd2"/>
    <path id="Path_46" data-name="Path 46" d="M500.53,431.726l1.351,2.339-2.338,1.353-1.351-2.34,2.337-1.353" transform="translate(-456.098 -395.247)" fill="#008fd2"/>
    <rect id="Rectangle_32" data-name="Rectangle 32" width="2.645" height="2.667" transform="translate(35.176 9.244)" fill="#008fd2"/>
    <rect id="Rectangle_33" data-name="Rectangle 33" width="2.666" height="2.644" transform="translate(20.294 24.119)" fill="#008fd2"/>
    <rect id="Rectangle_34" data-name="Rectangle 34" width="2.657" height="2.649" transform="translate(50.041 24.124)" fill="#008fd2"/>
    <rect id="Rectangle_35" data-name="Rectangle 35" width="2.652" height="2.652" transform="translate(35.172 38.998)" fill="#008fd2"/>
  </g>
</svg>
