<svg id="Group_20" data-name="Group 20" xmlns="http://www.w3.org/2000/svg" xmlns:xlink="http://www.w3.org/1999/xlink" width="78.124" height="76.773" viewBox="0 0 78.124 76.773">
  <defs>
    <clipPath id="clip-path">
      <rect id="Rectangle_31" data-name="Rectangle 31" width="78.124" height="76.773" fill="#008fd2"/>
    </clipPath>
  </defs>
  <g id="Group_19" data-name="Group 19" clip-path="url(#clip-path)">
    <path id="Path_24" data-name="Path 24" d="M10.749,25.574a6.844,6.844,0,0,1,5.333-6.6,22.379,22.379,0,0,1,.367-2.241,8.065,8.065,0,0,1,7.7-5.98,5.384,5.384,0,0,0,5.481-5.54c0-1.725,0-3.45,0-5.207h2.644c.012.02.039.043.039.065-.022,2.131.08,4.273-.1,6.392a7.959,7.959,0,0,1-6.862,6.9,22.644,22.644,0,0,0-2.377.254,5.32,5.32,0,0,0-4.12,5.144c-.005.435,0,.87,0,1.305a1.357,1.357,0,0,1-1.433,1.465,4.046,4.046,0,0,0-3.93,3.586,3.448,3.448,0,0,0,0,.432H35.019c0-.606,0-1.217,0-1.827a8.223,8.223,0,0,1,.584-3.164,7.635,7.635,0,0,1,2.452-3.306,5.743,5.743,0,0,0,2.363-4.906c-.033-3.943-.01-7.886-.01-11.83V0H43.1V.432q0,6.041,0,12.082a8.1,8.1,0,0,1-3.195,6.692,5.486,5.486,0,0,0-2.2,4.642c.011.558,0,1.117,0,1.726.446,0,.863,0,1.278,0a1.343,1.343,0,0,1,1.413,1.4q.012,2.652,0,5.3a1.335,1.335,0,0,1-1.384,1.381c-.477.008-.954.011-1.431,0a.346.346,0,0,0-.414.291,42.959,42.959,0,0,0-1.656,8.486c-.059.652-.106,1.306-.16,1.983H48.147c-.061-.793-.1-1.572-.184-2.346a44.937,44.937,0,0,0-1.6-8.03c-.087-.3-.208-.405-.517-.387-.461.028-.926.015-1.388,0A1.336,1.336,0,0,1,43.1,32.289q-.014-2.673,0-5.347a1.328,1.328,0,0,1,1.354-1.366c.432-.01.864,0,1.295,0a6.906,6.906,0,0,1,5.418-6.637,8.632,8.632,0,0,1,.59-3.094,8.092,8.092,0,0,1,7.383-5.087,5.393,5.393,0,0,0,5.508-5.6q0-2.357,0-4.715V0h2.694c0,.374,0,.735,0,1.1,0,1.417.006,2.835,0,4.252a8.089,8.089,0,0,1-8.033,8.1,5.377,5.377,0,0,0-5.435,5.5c0,.365,0,.73,0,1.095a1.361,1.361,0,0,1-1.448,1.492A4.03,4.03,0,0,0,48.615,24.6c-.074.3-.1.605-.152.944H70.04c0-.651,0-1.305,0-1.959a7.887,7.887,0,0,1,1.827-5.123,10.676,10.676,0,0,1,1.448-1.4,5.478,5.478,0,0,0,2.111-4.432q0-6.062,0-12.124V.01h2.694V.447c0,4.013-.007,8.027,0,12.04a8.125,8.125,0,0,1-3.207,6.729,5.465,5.465,0,0,0-2.185,4.6c.009.571,0,1.143,0,1.753.458,0,.876-.005,1.293,0a1.344,1.344,0,0,1,1.4,1.41q.01,2.631,0,5.262a1.34,1.34,0,0,1-1.4,1.409c-.449.007-.9.022-1.346-.006a.429.429,0,0,0-.528.381c-.36,1.6-.824,3.178-1.081,4.792a92.547,92.547,0,0,0-.921,18.8A39.445,39.445,0,0,0,72.4,69.73a14.871,14.871,0,0,0,2.718,4.849,1.22,1.22,0,0,1,.189,1.381,1.288,1.288,0,0,1-1.187.8c-.42.019-.842.006-1.263.006q-35.587,0-71.175,0A2.735,2.735,0,0,1,.977,76.7,1.312,1.312,0,0,1,0,75.347,24.254,24.254,0,0,1,13.152,53.9a.49.49,0,0,0,.319-.507A92.145,92.145,0,0,0,12.435,38.8c-.269-1.6-.717-3.167-1.075-4.751a.45.45,0,0,0-.557-.4c-.433.031-.869.013-1.3.007a1.342,1.342,0,0,1-1.416-1.393q-.013-2.652,0-5.3a1.334,1.334,0,0,1,1.38-1.384c.419-.008.838,0,1.286,0m34.97,48.483a21.507,21.507,0,0,0-42.932-.013h7.987c0-1.32-.011-2.61.006-3.9a7.554,7.554,0,0,1,.131-1.42,6.729,6.729,0,0,1,13.332,1.361c0,1.179,0,2.358,0,3.536v.436Zm16.221-26.9H26.956v4.157c.622.1,1.235.163,1.833.3q13.932,3.122,18.585,16.628c.112.325.225.455.592.454,4.517-.015,9.034-.01,13.551-.01h.424Zm.01-2.724H63.1a1.381,1.381,0,0,1,1.554,1.553q0,13.766,0,27.532v.526h6.755c-.045-.1-.069-.162-.1-.22a25.466,25.466,0,0,1-2.191-5.447,49.576,49.576,0,0,1-1.748-13.6c0-3.141.1-6.285.261-9.423a57.1,57.1,0,0,1,1.236-9.416c.167-.756.366-1.5.55-2.259H49.083a52.873,52.873,0,0,1,1.76,10.72h3.051V40.423H56.58V44.41h2.7v-4h2.671Zm-27.6-10.764H14.085c1.679,6.185,1.94,12.512,2.084,18.911a24.707,24.707,0,0,1,8.075-1.415v-.495q0-2.357,0-4.714a1.365,1.365,0,0,1,1.538-1.522q3.2,0,6.4,0H32.6c.223-1.836.385-3.638.676-5.418s.711-3.54,1.082-5.347M37.693,28.3H10.808v2.646H37.693Zm8.122,2.638H72.7V28.29H45.815ZM13.535,74.043h8c0-1.461.055-2.893-.013-4.32A4,4,0,0,0,17.74,66a3.9,3.9,0,0,0-4.173,3.354,44.9,44.9,0,0,0-.032,4.691m34.909,0H61.937V71.4H48.152l.292,2.643" transform="translate(0)" fill="#008fd2"/>
    <path id="Path_25" data-name="Path 25" d="M256.145,198.629a6.73,6.73,0,0,1,6.689-6.693v2.658a4.171,4.171,0,0,0-2.813,1.192,4.122,4.122,0,0,0-1.209,2.843Z" transform="translate(-234.58 -175.773)" fill="#008fd2"/>
    <path id="Path_26" data-name="Path 26" d="M711.14,191.974v2.658a4.2,4.2,0,0,0-2.825,1.193,4.133,4.133,0,0,0-1.212,2.844h-2.637a6.657,6.657,0,0,1,6.673-6.695" transform="translate(-645.157 -175.814)" fill="#008fd2"/>
    <path id="Path_27" data-name="Path 27" d="M368.19,118.732v-2.66a4.156,4.156,0,0,0,2.823-1.19,4.1,4.1,0,0,0,1.209-2.844h2.639a6.655,6.655,0,0,1-6.671,6.695" transform="translate(-337.195 -102.606)" fill="#008fd2"/>
    <rect id="Rectangle_22" data-name="Rectangle 22" width="2.644" height="5.337" transform="translate(70.061 5.398)" fill="#008fd2"/>
    <rect id="Rectangle_23" data-name="Rectangle 23" width="2.652" height="2.645" transform="translate(26.955 66.019)" fill="#008fd2"/>
    <rect id="Rectangle_24" data-name="Rectangle 24" width="2.645" height="2.643" transform="translate(32.346 66.023)" fill="#008fd2"/>
    <rect id="Rectangle_25" data-name="Rectangle 25" width="2.641" height="2.643" transform="translate(45.825 49.842)" fill="#008fd2"/>
    <rect id="Rectangle_26" data-name="Rectangle 26" width="2.642" height="2.642" transform="translate(51.2 49.847)" fill="#008fd2"/>
    <rect id="Rectangle_27" data-name="Rectangle 27" width="2.632" height="2.655" transform="translate(56.605 49.855)" fill="#008fd2"/>
    <rect id="Rectangle_28" data-name="Rectangle 28" width="2.642" height="2.643" transform="translate(45.824 55.231)" fill="#008fd2"/>
    <rect id="Rectangle_29" data-name="Rectangle 29" width="2.636" height="2.658" transform="translate(51.208 55.22)" fill="#008fd2"/>
    <rect id="Rectangle_30" data-name="Rectangle 30" width="2.634" height="2.657" transform="translate(56.597 55.235)" fill="#008fd2"/>
  </g>
</svg>
