<svg xmlns="http://www.w3.org/2000/svg" width="47.021" height="34.568" viewBox="0 0 47.021 34.568">
  <g id="_5813694_business_management_marketing_letter_mail_icon" data-name="5813694_business_management_marketing_letter_mail_icon" transform="translate(0 -75.3)">
    <path id="Path_60" data-name="Path 60" d="M43.4,75.3H3.618A3.62,3.62,0,0,0,0,78.918v27.331a3.625,3.625,0,0,0,3.618,3.618H43.4a3.625,3.625,0,0,0,3.618-3.618V78.918A3.62,3.62,0,0,0,43.4,75.3Zm1.846,30.94a1.846,1.846,0,0,1-1.846,1.846H3.618a1.854,1.854,0,0,1-1.855-1.846V78.918a1.856,1.856,0,0,1,1.855-1.855H43.4a1.848,1.848,0,0,1,1.846,1.855Z" fill="#008fd2"/>
    <path id="Path_61" data-name="Path 61" d="M407.438,117.827a.883.883,0,0,0,.569-.2l4.2-3.508a.887.887,0,1,0-1.139-1.359l-4.2,3.508a.887.887,0,0,0-.11,1.249A.91.91,0,0,0,407.438,117.827Z" transform="translate(-369.215 -33.83)" fill="#008fd2"/>
    <path id="Path_62" data-name="Path 62" d="M67,120a.887.887,0,0,0-1.249-.11l-9.68,8.1L37.117,112.777a.882.882,0,0,0-1.1,1.378l19.525,15.677a.9.9,0,0,0,.551.193.937.937,0,0,0,.569-.2l10.231-8.568A.9.9,0,0,0,67,120Z" transform="translate(-32.405 -33.859)" fill="#008fd2"/>
    <path id="Path_63" data-name="Path 63" d="M316.267,272.118a.884.884,0,1,0-1.185,1.313l12.618,11.4a.849.849,0,0,0,.588.23.886.886,0,0,0,.588-1.543Z" transform="translate(-285.878 -178.534)" fill="#008fd2"/>
    <path id="Path_64" data-name="Path 64" d="M48.533,272.118l-12.618,11.4a.886.886,0,0,0,.588,1.543.849.849,0,0,0,.588-.23l12.618-11.4a.886.886,0,0,0,.064-1.249A.865.865,0,0,0,48.533,272.118Z" transform="translate(-32.351 -178.534)" fill="#008fd2"/>
  </g>
</svg>
