<svg id="Logo" xmlns="http://www.w3.org/2000/svg" xmlns:xlink="http://www.w3.org/1999/xlink" width="112.089" height="87.006" viewBox="0 0 112.089 87.006">
  <defs>
    <clipPath id="clip-path">
      <rect id="Rectangle_3" data-name="Rectangle 3" width="112.089" height="87.006" fill="none"/>
    </clipPath>
  </defs>
  <g id="Group_1" data-name="Group 1" clip-path="url(#clip-path)">
    <path id="Path_1" data-name="Path 1" d="M104.809,0A43.5,43.5,0,0,0,63.458,30.264h3.265a40.281,40.281,0,0,1,76.169,0h3.265A43.5,43.5,0,0,0,104.809,0m38.083,56.742a40.281,40.281,0,0,1-76.169,0H63.458a43.38,43.38,0,0,0,82.7,0Z" transform="translate(-48.762)" fill="#008fd2"/>
    <path id="Path_2" data-name="Path 2" d="M122.045,21.221A38.56,38.56,0,0,0,85.889,46.559h.992a37.532,37.532,0,0,1,70.324,0h.992a38.556,38.556,0,0,0-36.151-25.338M157.2,73.038a37.53,37.53,0,0,1-70.324,0h-.992a38.461,38.461,0,0,0,72.307,0Z" transform="translate(-65.998 -16.295)" fill="#88898b"/>
    <path id="Path_3" data-name="Path 3" d="M142.581,244.462a26.524,26.524,0,0,0,46.051,0Zm24.457,7.605-1.43,2.907-1.432-2.907-3.2-.467,2.316-2.262-.547-3.2,2.865,1.509,2.862-1.509-.547,3.2,2.316,2.262Z" transform="translate(-109.561 -187.72)" fill="#88898b"/>
    <path id="Path_4" data-name="Path 4" d="M165.608,72.837a26.522,26.522,0,0,0-23.026,13.357h46.051a26.522,26.522,0,0,0-23.024-13.357m2.862,10.977-2.862-1.509-2.865,1.509.547-3.2-2.316-2.262,3.2-.468,1.432-2.907,1.43,2.907,3.2.468-2.316,2.262Z" transform="translate(-109.562 -55.931)" fill="#88898b"/>
    <path id="Path_5" data-name="Path 5" d="M42.135,149.759a1.5,1.5,0,0,0-1-.231v3.825c.111,0,.207.007.287.007a.9.9,0,0,0,.747-.264,1.941,1.941,0,0,0,.208-1.1v-1.235a1.455,1.455,0,0,0-.24-1m0,0a1.5,1.5,0,0,0-1-.231v3.825c.111,0,.207.007.287.007a.9.9,0,0,0,.747-.264,1.941,1.941,0,0,0,.208-1.1v-1.235a1.455,1.455,0,0,0-.24-1m0,0a1.5,1.5,0,0,0-1-.231v3.825c.111,0,.207.007.287.007a.9.9,0,0,0,.747-.264,1.941,1.941,0,0,0,.208-1.1v-1.235a1.455,1.455,0,0,0-.24-1m20.181-.01a1.445,1.445,0,0,0-.931-.222v3.341a1.692,1.692,0,0,0,.921-.182c.174-.12.264-.51.264-1.174v-.826a1.256,1.256,0,0,0-.255-.937m0,0a1.445,1.445,0,0,0-.931-.222v3.341a1.692,1.692,0,0,0,.921-.182c.174-.12.264-.51.264-1.174v-.826a1.256,1.256,0,0,0-.255-.937m-20.181.01a1.5,1.5,0,0,0-1-.231v3.825c.111,0,.207.007.287.007a.9.9,0,0,0,.747-.264,1.941,1.941,0,0,0,.208-1.1v-1.235a1.455,1.455,0,0,0-.24-1m0,0a1.5,1.5,0,0,0-1-.231v3.825c.111,0,.207.007.287.007a.9.9,0,0,0,.747-.264,1.941,1.941,0,0,0,.208-1.1v-1.235a1.455,1.455,0,0,0-.24-1m20.181-.01a1.445,1.445,0,0,0-.931-.222v3.341a1.692,1.692,0,0,0,.921-.182c.174-.12.264-.51.264-1.174v-.826a1.256,1.256,0,0,0-.255-.937m18.59-.274a.46.46,0,0,0-.476-.293.537.537,0,0,0-.469.236,3.363,3.363,0,0,0-.163,1.4v7.02a6.906,6.906,0,0,0,.108,1.615.463.463,0,0,0,.495.3.477.477,0,0,0,.509-.352,7.349,7.349,0,0,0,.113-1.681v-6.907a4.621,4.621,0,0,0-.118-1.341m0,0a.46.46,0,0,0-.476-.293.537.537,0,0,0-.469.236,3.363,3.363,0,0,0-.163,1.4v7.02a6.906,6.906,0,0,0,.108,1.615.463.463,0,0,0,.495.3.477.477,0,0,0,.509-.352,7.349,7.349,0,0,0,.113-1.681v-6.907a4.621,4.621,0,0,0-.118-1.341m-18.59.274a1.445,1.445,0,0,0-.931-.222v3.341a1.692,1.692,0,0,0,.921-.182c.174-.12.264-.51.264-1.174v-.826a1.256,1.256,0,0,0-.255-.937m-20.181.01a1.5,1.5,0,0,0-1-.231v3.825c.111,0,.207.007.287.007a.9.9,0,0,0,.747-.264,1.941,1.941,0,0,0,.208-1.1v-1.235a1.455,1.455,0,0,0-.24-1m0,0a1.5,1.5,0,0,0-1-.231v3.825c.111,0,.207.007.287.007a.9.9,0,0,0,.747-.264,1.941,1.941,0,0,0,.208-1.1v-1.235a1.455,1.455,0,0,0-.24-1m20.181-.01a1.445,1.445,0,0,0-.931-.222v3.341a1.692,1.692,0,0,0,.921-.182c.174-.12.264-.51.264-1.174v-.826a1.256,1.256,0,0,0-.255-.937m18.59-.274a.46.46,0,0,0-.476-.293.537.537,0,0,0-.469.236,3.363,3.363,0,0,0-.163,1.4v7.02a6.906,6.906,0,0,0,.108,1.615.463.463,0,0,0,.495.3.477.477,0,0,0,.509-.352,7.349,7.349,0,0,0,.113-1.681v-6.907a4.621,4.621,0,0,0-.118-1.341m11.723.274a1.446,1.446,0,0,0-.931-.222v3.341a1.686,1.686,0,0,0,.921-.182c.177-.12.264-.51.264-1.174v-.826a1.256,1.256,0,0,0-.255-.937m0,0a1.446,1.446,0,0,0-.931-.222v3.341a1.686,1.686,0,0,0,.921-.182c.177-.12.264-.51.264-1.174v-.826a1.256,1.256,0,0,0-.255-.937m-11.723-.274a.46.46,0,0,0-.476-.293.537.537,0,0,0-.469.236,3.363,3.363,0,0,0-.163,1.4v7.02a6.906,6.906,0,0,0,.108,1.615.463.463,0,0,0,.495.3.477.477,0,0,0,.509-.352,7.349,7.349,0,0,0,.113-1.681v-6.907a4.621,4.621,0,0,0-.118-1.341m-18.59.274a1.445,1.445,0,0,0-.931-.222v3.341a1.692,1.692,0,0,0,.921-.182c.174-.12.264-.51.264-1.174v-.826a1.256,1.256,0,0,0-.255-.937m-20.181.01a1.5,1.5,0,0,0-1-.231v3.825c.111,0,.207.007.287.007a.9.9,0,0,0,.747-.264,1.941,1.941,0,0,0,.208-1.1v-1.235a1.455,1.455,0,0,0-.24-1m69.954-6H0L5.838,153.9,0,164.032H112.089L106.251,153.9ZM22.416,160.509a2.93,2.93,0,0,1-1.449,1.275,5.705,5.705,0,0,1-2.5.517,5.586,5.586,0,0,1-2.674-.6,2.91,2.91,0,0,1-1.449-1.514A7.773,7.773,0,0,1,14,157.584V156.6h3.621v1.827a2.38,2.38,0,0,0,.153,1.086.59.59,0,0,0,.542.241.631.631,0,0,0,.577-.3,1.751,1.751,0,0,0,.191-.911,2.828,2.828,0,0,0-.361-1.736A11.535,11.535,0,0,0,16.9,155.44a18.11,18.11,0,0,1-1.927-1.4,3.322,3.322,0,0,1-.782-1.209,5.3,5.3,0,0,1-.311-1.967,5.494,5.494,0,0,1,.44-2.526,2.97,2.97,0,0,1,1.423-1.247,5.654,5.654,0,0,1,2.37-.451,6.164,6.164,0,0,1,2.589.491,2.72,2.72,0,0,1,1.418,1.239,6.6,6.6,0,0,1,.346,2.538v.6H18.847v-1.115a2.189,2.189,0,0,0-.139-.992.51.51,0,0,0-.464-.215.592.592,0,0,0-.532.288,1.684,1.684,0,0,0-.179.874,2.465,2.465,0,0,0,.2,1.133,2.931,2.931,0,0,0,1.1.918,11.162,11.162,0,0,1,3.282,2.543,5.843,5.843,0,0,1,.676,3.2,5.6,5.6,0,0,1-.377,2.368M34.3,157a17.616,17.616,0,0,1-.111,2.4,3.271,3.271,0,0,1-.657,1.421,3.428,3.428,0,0,1-1.442,1.1,5.359,5.359,0,0,1-2.106.378,5.894,5.894,0,0,1-2.37-.446,3.572,3.572,0,0,1-1.538-1.162,3.205,3.205,0,0,1-.6-1.506q-.092-.793-.092-3.339v-8.892h3.9v11.27a4.453,4.453,0,0,0,.106,1.256.417.417,0,0,0,.431.274.451.451,0,0,0,.478-.3,5.683,5.683,0,0,0,.106-1.426V146.956h3.9Zm11.334-4.531a5.475,5.475,0,0,1-.3,2.1,2.027,2.027,0,0,1-1.088,1.011,5.124,5.124,0,0,1-2.071.352H41.134v6.054h-3.9V146.956h3.927a9.187,9.187,0,0,1,2.45.25,2.746,2.746,0,0,1,1.286.723,2.488,2.488,0,0,1,.584,1.148,10.315,10.315,0,0,1,.153,2.085Zm9.306,9.516H48.18V146.956h6.5v3.006h-2.6v2.852h2.436v2.857H52.079v3.305h2.862ZM65.6,154.911a2.314,2.314,0,0,1,.5.888,14.2,14.2,0,0,1,.1,2.222v3.964H62.57v-4.994a3.434,3.434,0,0,0-.191-1.495c-.127-.194-.457-.288-.994-.288v6.777h-3.9V146.956h2.761a21.119,21.119,0,0,1,3.736.213,2.571,2.571,0,0,1,1.595,1.091,4.969,4.969,0,0,1,.615,2.8,4.361,4.361,0,0,1-.436,2.359,2.283,2.283,0,0,1-1.713.725,2.916,2.916,0,0,1,1.555.77m7.426,7.074h-3.9V146.956h3.9Zm11.9-6.229a32.035,32.035,0,0,1-.108,3.206,3.591,3.591,0,0,1-2.179,2.921,5.5,5.5,0,0,1-2.224.418,5.651,5.651,0,0,1-2.163-.394,3.618,3.618,0,0,1-2.238-2.9,32.2,32.2,0,0,1-.111-3.249v-2.571a32.061,32.061,0,0,1,.108-3.209,3.592,3.592,0,0,1,2.179-2.919,5.507,5.507,0,0,1,2.224-.418,5.647,5.647,0,0,1,2.163.394,3.609,3.609,0,0,1,2.238,2.9,32.2,32.2,0,0,1,.111,3.249Zm10.99-.845a2.275,2.275,0,0,1,.495.888,13.768,13.768,0,0,1,.1,2.222v3.964H92.884v-4.994A3.485,3.485,0,0,0,92.7,155.5c-.127-.194-.459-.288-1-.288v6.777H87.8V146.956h2.759a21.15,21.15,0,0,1,3.739.213,2.567,2.567,0,0,1,1.593,1.091,4.948,4.948,0,0,1,.617,2.8,4.383,4.383,0,0,1-.436,2.359,2.289,2.289,0,0,1-1.715.725,2.934,2.934,0,0,1,1.557.77M91.7,149.527v3.341a1.686,1.686,0,0,0,.921-.182c.177-.12.264-.51.264-1.174v-.826a1.256,1.256,0,0,0-.255-.937,1.446,1.446,0,0,0-.931-.222m-11.268-.345a.537.537,0,0,0-.469.236,3.363,3.363,0,0,0-.163,1.4v7.02a6.906,6.906,0,0,0,.108,1.615.463.463,0,0,0,.495.3.477.477,0,0,0,.509-.352,7.349,7.349,0,0,0,.113-1.681v-6.907a4.621,4.621,0,0,0-.118-1.341.46.46,0,0,0-.476-.293m-19.045.345v3.341a1.692,1.692,0,0,0,.921-.182c.174-.12.264-.51.264-1.174v-.826a1.256,1.256,0,0,0-.255-.937,1.445,1.445,0,0,0-.931-.222m-20.251,0v3.825c.111,0,.207.007.287.007a.9.9,0,0,0,.747-.264,1.941,1.941,0,0,0,.208-1.1v-1.235a1.455,1.455,0,0,0-.24-1,1.5,1.5,0,0,0-1-.231m1,.231a1.5,1.5,0,0,0-1-.231v3.825c.111,0,.207.007.287.007a.9.9,0,0,0,.747-.264,1.941,1.941,0,0,0,.208-1.1v-1.235a1.455,1.455,0,0,0-.24-1m20.181-.01a1.445,1.445,0,0,0-.931-.222v3.341a1.692,1.692,0,0,0,.921-.182c.174-.12.264-.51.264-1.174v-.826a1.256,1.256,0,0,0-.255-.937m18.59-.274a.46.46,0,0,0-.476-.293.537.537,0,0,0-.469.236,3.363,3.363,0,0,0-.163,1.4v7.02a6.906,6.906,0,0,0,.108,1.615.463.463,0,0,0,.495.3.477.477,0,0,0,.509-.352,7.349,7.349,0,0,0,.113-1.681v-6.907a4.621,4.621,0,0,0-.118-1.341m11.723.274a1.446,1.446,0,0,0-.931-.222v3.341a1.686,1.686,0,0,0,.921-.182c.177-.12.264-.51.264-1.174v-.826a1.256,1.256,0,0,0-.255-.937m0,0a1.446,1.446,0,0,0-.931-.222v3.341a1.686,1.686,0,0,0,.921-.182c.177-.12.264-.51.264-1.174v-.826a1.256,1.256,0,0,0-.255-.937m-11.723-.274a.46.46,0,0,0-.476-.293.537.537,0,0,0-.469.236,3.363,3.363,0,0,0-.163,1.4v7.02a6.906,6.906,0,0,0,.108,1.615.463.463,0,0,0,.495.3.477.477,0,0,0,.509-.352,7.349,7.349,0,0,0,.113-1.681v-6.907a4.621,4.621,0,0,0-.118-1.341m-18.59.274a1.445,1.445,0,0,0-.931-.222v3.341a1.692,1.692,0,0,0,.921-.182c.174-.12.264-.51.264-1.174v-.826a1.256,1.256,0,0,0-.255-.937m-20.181.01a1.5,1.5,0,0,0-1-.231v3.825c.111,0,.207.007.287.007a.9.9,0,0,0,.747-.264,1.941,1.941,0,0,0,.208-1.1v-1.235a1.455,1.455,0,0,0-.24-1m0,0a1.5,1.5,0,0,0-1-.231v3.825c.111,0,.207.007.287.007a.9.9,0,0,0,.747-.264,1.941,1.941,0,0,0,.208-1.1v-1.235a1.455,1.455,0,0,0-.24-1m20.181-.01a1.445,1.445,0,0,0-.931-.222v3.341a1.692,1.692,0,0,0,.921-.182c.174-.12.264-.51.264-1.174v-.826a1.256,1.256,0,0,0-.255-.937m0,0a1.445,1.445,0,0,0-.931-.222v3.341a1.692,1.692,0,0,0,.921-.182c.174-.12.264-.51.264-1.174v-.826a1.256,1.256,0,0,0-.255-.937m-20.181.01a1.5,1.5,0,0,0-1-.231v3.825c.111,0,.207.007.287.007a.9.9,0,0,0,.747-.264,1.941,1.941,0,0,0,.208-1.1v-1.235a1.455,1.455,0,0,0-.24-1m0,0a1.5,1.5,0,0,0-1-.231v3.825c.111,0,.207.007.287.007a.9.9,0,0,0,.747-.264,1.941,1.941,0,0,0,.208-1.1v-1.235a1.455,1.455,0,0,0-.24-1m0,0a1.5,1.5,0,0,0-1-.231v3.825c.111,0,.207.007.287.007a.9.9,0,0,0,.747-.264,1.941,1.941,0,0,0,.208-1.1v-1.235a1.455,1.455,0,0,0-.24-1" transform="translate(0 -110.392)" fill="#008fd2"/>
    <path id="Path_6" data-name="Path 6" d="M125,88.018a3.023,3.023,0,0,0-.86-.961,3.135,3.135,0,0,0-1.562-.808,5.981,5.981,0,0,0-2.174.508,1.569,1.569,0,0,1-.759.149,1.31,1.31,0,0,1-.539-.3.912.912,0,0,1-.3-.373.322.322,0,0,1,.061-.321.276.276,0,0,1,.247-.12,1.2,1.2,0,0,1,.462.279l.462.38,1.232-1.516-.247-.2a3.476,3.476,0,0,0-1.176-.718,1.448,1.448,0,0,0-1,.17,3.332,3.332,0,0,0-1.086.916,3.075,3.075,0,0,0-.619,1.145,1.606,1.606,0,0,0,.038,1.02,2.946,2.946,0,0,0,.9,1.041,2.9,2.9,0,0,0,.923.541,1.777,1.777,0,0,0,.771.083,9.748,9.748,0,0,0,1.237-.331,6.037,6.037,0,0,1,1.19-.3,1.492,1.492,0,0,1,.846.439.933.933,0,0,1,.316.387.347.347,0,0,1-.071.347.318.318,0,0,1-.285.144,1.292,1.292,0,0,1-.5-.3l-.761-.623-1.232,1.516.41.335a4.165,4.165,0,0,0,1.2.744,1.551,1.551,0,0,0,1.121-.092,3,3,0,0,0,1.157-.916,3.129,3.129,0,0,0,.636-1.221A1.6,1.6,0,0,0,125,88.018" transform="translate(-89.962 -64.491)" fill="#008fd2"/>
    <path id="Path_7" data-name="Path 7" d="M142.941,59.419l.99-.76-.982-1.285-3.642,2.793.982,1.287.987-.756,3.925,5.138,1.666-1.28Z" transform="translate(-107.044 -44.057)" fill="#008fd2"/>
    <path id="Path_8" data-name="Path 8" d="M173.064,43.031l-2.752,1.277,2.417,7.795,1.969-.914-.495-1.372.683-.317.711,1.273,1.946-.9Zm.516,5.495q-.378-1.009-1.058-3.254.993,1.771,1.713,2.949Z" transform="translate(-130.87 -33.043)" fill="#008fd2"/>
    <rect id="Rectangle_1" data-name="Rectangle 1" width="2.095" height="8.089" transform="translate(46.829 8.439) rotate(-13.04)" fill="#008fd2"/>
    <path id="Path_9" data-name="Path 9" d="M233.706,39.22l-.153-8.092-1.755.036.068,3.641-1.244-3.62-1.755.033.153,8.092,1.755-.036L230.7,35.6l1.161,3.658Z" transform="translate(-175.864 -23.903)" fill="#008fd2"/>
    <path id="Path_10" data-name="Path 10" d="M264.169,33.675l-2.057-.43-1.649,7.922,3.305.692.33-1.587-1.249-.26Z" transform="translate(-200.143 -25.528)" fill="#008fd2"/>
    <path id="Path_11" data-name="Path 11" d="M289.489,44.21l.645-1.485-3.209-1.4L283.7,48.738l3.336,1.459.645-1.485-1.411-.616.709-1.632,1.2.527.615-1.412-1.2-.524.61-1.407Z" transform="translate(-217.997 -31.731)" fill="#008fd2"/>
    <path id="Path_12" data-name="Path 12" d="M316.055,60.16a3.318,3.318,0,0,0-.961-1.044,3.015,3.015,0,0,0-1.168-.569,1.589,1.589,0,0,0-1.016.083,2.931,2.931,0,0,0-1,.949,2.889,2.889,0,0,0-.5.949,1.777,1.777,0,0,0-.047.775,9.435,9.435,0,0,0,.384,1.225A6.217,6.217,0,0,1,312.1,63.7a1.529,1.529,0,0,1-.4.867.937.937,0,0,1-.372.333.339.339,0,0,1-.349-.054.317.317,0,0,1-.158-.279,1.287,1.287,0,0,1,.283-.517l.584-.791L310.125,62.1l-.316.425a4.234,4.234,0,0,0-.688,1.239,1.569,1.569,0,0,0,.144,1.119A3.007,3.007,0,0,0,310.229,66a3.076,3.076,0,0,0,1.246.583,1.582,1.582,0,0,0,1.034-.088,3.007,3.007,0,0,0,.921-.9,3.126,3.126,0,0,0,.732-1.6,5.959,5.959,0,0,0-.6-2.153,1.6,1.6,0,0,1-.181-.753,1.348,1.348,0,0,1,.276-.555.911.911,0,0,1,.358-.319.316.316,0,0,1,.323.047.274.274,0,0,1,.132.241,1.191,1.191,0,0,1-.259.474l-.356.482,1.564,1.164.191-.257a3.518,3.518,0,0,0,.662-1.209,1.461,1.461,0,0,0-.214-.992" transform="translate(-237.495 -44.923)" fill="#008fd2"/>
    <path id="Path_13" data-name="Path 13" d="M340.023,85.288a3.354,3.354,0,0,0-.681-1.247,3.046,3.046,0,0,0-1-.834,1.579,1.579,0,0,0-1-.165,2.927,2.927,0,0,0-1.2.68,2.839,2.839,0,0,0-.709.8,1.733,1.733,0,0,0-.233.739,9.7,9.7,0,0,0,.078,1.282,6.347,6.347,0,0,1,.059,1.226c-.031.194-.231.441-.6.746a.937.937,0,0,1-.441.231.34.34,0,0,1-.325-.137.323.323,0,0,1-.087-.309,1.326,1.326,0,0,1,.4-.435l.759-.626L333.8,85.734l-.41.337a4.2,4.2,0,0,0-.964,1.034,1.561,1.561,0,0,0-.132,1.122,3.018,3.018,0,0,0,.667,1.318,3.068,3.068,0,0,0,1.07.864,1.566,1.566,0,0,0,1.025.168,3,3,0,0,0,1.112-.652,3.137,3.137,0,0,0,1.1-1.379,6.02,6.02,0,0,0-.066-2.236,1.577,1.577,0,0,1,0-.772,1.3,1.3,0,0,1,.4-.472.885.885,0,0,1,.424-.224.319.319,0,0,1,.3.123.276.276,0,0,1,.068.267,1.155,1.155,0,0,1-.363.4l-.464.383,1.239,1.509.247-.2a3.525,3.525,0,0,0,.933-1.013,1.453,1.453,0,0,0,.031-1.015" transform="translate(-255.307 -63.749)" fill="#008fd2"/>
    <path id="Path_14" data-name="Path 14" d="M132.83,266.585a3.284,3.284,0,0,0-.745-1.178,2.961,2.961,0,0,0-1.027-.756,1.55,1.55,0,0,0-.992-.1,2.878,2.878,0,0,0-1.133.739,2.761,2.761,0,0,0-.645.829,1.7,1.7,0,0,0-.184.737,9.217,9.217,0,0,0,.153,1.251,6.27,6.27,0,0,1,.132,1.2,1.491,1.491,0,0,1-.539.765.945.945,0,0,1-.419.255.337.337,0,0,1-.327-.116.311.311,0,0,1-.1-.3,1.261,1.261,0,0,1,.363-.451l.707-.659-1.305-1.4-.379.354a4.092,4.092,0,0,0-.881,1.072,1.536,1.536,0,0,0-.061,1.107,2.967,2.967,0,0,0,.733,1.249,3.053,3.053,0,0,0,1.1.782,1.544,1.544,0,0,0,1.015.1,2.949,2.949,0,0,0,1.046-.706,3.081,3.081,0,0,0,.992-1.417,5.939,5.939,0,0,0-.2-2.184,1.552,1.552,0,0,1-.042-.758,1.289,1.289,0,0,1,.363-.486.863.863,0,0,1,.4-.243.307.307,0,0,1,.3.1.269.269,0,0,1,.085.255,1.156,1.156,0,0,1-.332.413l-.431.4,1.305,1.4.229-.212a3.466,3.466,0,0,0,.853-1.048,1.447,1.447,0,0,0-.031-1" transform="translate(-96.337 -203.113)" fill="#008fd2"/>
    <path id="Path_15" data-name="Path 15" d="M154.78,281.063l-.9,1.31,1,.689-3.579,5.237,1.7,1.166,3.578-5.237,1.011.692.9-1.31Z" transform="translate(-116.268 -215.825)" fill="#008fd2"/>
    <path id="Path_16" data-name="Path 16" d="M181.736,298.307l.608-1.466-3.171-1.322-3.041,7.329,3.3,1.374.61-1.466-1.4-.583.669-1.61,1.187.5.58-1.4-1.187-.493.577-1.391Z" transform="translate(-135.341 -226.926)" fill="#008fd2"/>
    <path id="Path_17" data-name="Path 17" d="M209.5,306l.309-1.558-3.369-.666-1.534,7.787,3.5.692.306-1.558-1.482-.293.337-1.712,1.26.248.292-1.48-1.263-.25.292-1.476Z" transform="translate(-157.455 -233.268)" fill="#008fd2"/>
    <path id="Path_18" data-name="Path 18" d="M237.045,313.722l.1-6.347-2.059-.036-.13,7.938,3.31.052.026-1.587Z" transform="translate(-180.546 -236.003)" fill="#008fd2"/>
    <path id="Path_19" data-name="Path 19" d="M279.963,302.494l-2.778-7.433-2.509.942.855,3.639-.98-1.79q-.459-.864-.82-1.492l-2.495.935,2.775,7.433,1.687-.633-1.83-4.9,2.54,4.638,1.2-.449-1.2-5.27,1.877,5.018Z" transform="translate(-208.421 -226.574)" fill="#008fd2"/>
    <path id="Path_20" data-name="Path 20" d="M308.618,286.319l1.048-.723-.855-1.244-1.046.723-.853-1.24,1.178-.81-.9-1.31-2.874,1.983,4.49,6.538,1.7-1.171Z" transform="translate(-233.842 -216.325)" fill="#008fd2"/>
    <path id="Path_21" data-name="Path 21" d="M334.048,269.858l-3.105-2.911-1.647,1.766.879.824.283-.3.685.642a2.146,2.146,0,0,1,.488.569.3.3,0,0,1-.068.354.271.271,0,0,1-.311.085,2.259,2.259,0,0,1-.558-.432l-2.775-2.6a2.315,2.315,0,0,1-.5-.567.309.309,0,0,1,.386-.375,3.546,3.546,0,0,1,.662.541l.523.491,1.409-1.507-.25-.234a4.7,4.7,0,0,0-1.209-.885,1.763,1.763,0,0,0-1.176-.035,2.791,2.791,0,0,0-1.3.845,2.452,2.452,0,0,0-.711,1.388,1.7,1.7,0,0,0,.207,1.159,7.816,7.816,0,0,0,1.121,1.218l1.717,1.61a9.459,9.459,0,0,0,.935.8,1.969,1.969,0,0,0,.77.319,1.879,1.879,0,0,0,.924-.076,1.95,1.95,0,0,0,.848-.541,1.5,1.5,0,0,0,.384-.678,1.449,1.449,0,0,0-.04-.765l.544.248Z" transform="translate(-250.296 -203.641)" fill="#008fd2"/>
    <rect id="Rectangle_2" data-name="Rectangle 2" width="1.494" height="1.614" transform="matrix(0.54, -0.842, 0.842, 0.54, 84.364, 62.565)" fill="#008fd2"/>
  </g>
</svg>
