<svg id="Group_59" data-name="Group 59" xmlns="http://www.w3.org/2000/svg" xmlns:xlink="http://www.w3.org/1999/xlink" width="42" height="42.016" viewBox="0 0 42 42.016">
  <defs>
    <clipPath id="clip-path">
      <rect id="Rectangle_82" data-name="Rectangle 82" width="42" height="42.016" fill="#008fd2"/>
    </clipPath>
  </defs>
  <g id="Group_58" data-name="Group 58" clip-path="url(#clip-path)">
    <path id="Path_48" data-name="Path 48" d="M27.7,29.252l4.2-4.205a1.066,1.066,0,0,1,1.759,0l7.876,7.877a1.068,1.068,0,0,1,.007,1.76c-1.4,1.4-2.773,2.81-4.193,4.181A10.859,10.859,0,0,1,22,38.806c-3.472-3.423-6.9-6.89-10.348-10.339a1.027,1.027,0,1,1,1.46-1.432q5.106,5.1,10.207,10.208a8.748,8.748,0,0,0,4.8,2.564,8.554,8.554,0,0,0,7.553-2.18c1.319-1.21,2.528-2.54,3.753-3.783l-6.653-6.651-1.548,1.549c.033.035.109.121.189.2q1.538,1.54,3.077,3.079a.992.992,0,0,1,.264,1.086.97.97,0,0,1-.822.673,1.032,1.032,0,0,1-.921-.342q-1.513-1.52-3.03-3.035a3.078,3.078,0,0,1-.24-.32c-.45.456-.842.858-1.24,1.255a1.049,1.049,0,0,1-1.691-.006L9.65,14.18a1.054,1.054,0,0,1,0-1.713l4.2-4.2L8.18,2.592,6.62,4.146c.039.041.114.124.193.2L9.89,7.428a1,1,0,0,1,.272,1.113.968.968,0,0,1-.831.662,1.048,1.048,0,0,1-.917-.353Q6.9,7.328,5.381,5.816c-.081-.081-.167-.158-.26-.245a8.742,8.742,0,0,0-2.874,4.885,8.729,8.729,0,0,0,2.421,8.139c.362.377.741.738,1.107,1.111a1.025,1.025,0,1,1-1.442,1.449A17.426,17.426,0,0,1,1.58,17.968,10.913,10.913,0,0,1,2.97,4.828c1.465-1.522,2.977-3,4.474-4.489A1,1,0,0,1,8.926.324q3.583,3.569,7.152,7.152a1,1,0,0,1-.05,1.507q-2.033,2.041-4.073,4.075c-.081.082-.159.167-.219.23L27.7,29.252" transform="translate(-0.001 0)" fill="#008fd2"/>
    <path id="Path_49" data-name="Path 49" d="M113.258,352.145a2.81,2.81,0,0,1,.588.327c.354.3.675.649,1,.987A1.021,1.021,0,1,1,113.4,354.9c-.344-.333-.687-.667-1.014-1.018a.966.966,0,0,1-.184-1.123,1.088,1.088,0,0,1,1.061-.612" transform="translate(-104.919 -329.601)" fill="#008fd2"/>
  </g>
</svg>
